<svg height="424" viewBox="0 0 36.9995 36.9995" width="100%" xmlns="http://www.w3.org/2000/svg"><g fill="none" fill-rule="evenodd"><path d="m27.224 17.788h-7.964v-10.011a.994.994 0 0 0 -.981-1.002c-.54 0-.982.45-.982 1.002v10.01h-7.96c-.689 0-1.253.576-1.253 1.278v9.082c0 .703.564 1.277 1.253 1.277h17.886c.689 0 1.252-.574 1.252-1.277v-9.082c0-.702-.563-1.277-1.252-1.277" fill="#fbbb17"/><path d="m30.54 9.777c.32.265.215.39.013.676-.664.941-1.822 2.322-1.908 3.14-.098.924.189 2.283-.839 3.228-.427-.024-5.461 0-5.461 0 1.001-1.301 2.222-3.629 4.156-4.15 1.196-.321 2.032-1.734 2.797-2.869.395-.587.696-.476 1.242-.025" fill="#a71e59"/><path d="m24.847 12.16c-.814.515-1.308 1.08-1.768 1.657-1.042 1.311-2.167 3.004-2.167 3.004h-.52c.706-2.555-.441-4.308.67-4.996.745-.462 1.09.26 2.145-.278 1.322-.675 1.64.612 1.64.612m6.743 2.308c.177.094.257.32.219.52-.15.773.96 1.402.15 1.988-.806.582-.595.96-1.067.96-.587 0-.29-.723-1.607-1.114.283-.513.441-.72.498-2.25.586-.32 1.33-.358 1.808-.104m-21.415-4.677c1.293-.828 1.071 1.08 1.685.706.327-.2.64-.038.679.215.094.62-.683 1.718-.653 2.4a.055.055 0 0 1 -.061.059c-.131-.016-.228-.014-.702.107-.423.109-.93.456-.93.456-.628-.219-1.207-.573-1.849-.931-.473-.264-.59-.468-.595-.86-.005-.475.364-.57.22-.882-.198-.431-.397-.938-.17-1.355.125-.206.385-.432.64-.422.88-.02 1.007.973 1.736.507m-3.406 1.758c.059.12.087.181.016.314-.235.438-.045.909.267 1.345.516.722 2.001 1.137 2.678 1.358l-.186.595c-1.53-.404-2.487-.271-3.638.016 0 0-.644.283-1.046-.088-.404-.371-.213-.836 0-1.024 0 0-.904-.573-.5-1.416.316-.66.928-.565.928-.565s-.143-.727.507-1.062c.393-.202.736.049.736.049.103.233.178.353.238.478m2.54 4.612v.662c-1.44-.049-2.087.465-2.454 1.601-.4 1.516-2.827.878-2.01-1.165.625-1.44 2.89-1.596 4.463-1.099" fill="#bbd43a"/><path d="m16.253 13.716c-.548-.028-1.111.11-1.506.405-1.165-.744-2.03-.555-1.939-.693.495-.75 2.047-1.388 3.453-.721 0 0 .017.778-.008 1.009m-2.283.935a9.481 9.481 0 0 0 -.212.224c-.698.768-.763 1.872-.763 1.872h-2.706c-.066-.378-.067-.809-.001-1.104.226-1.02.893-1.523 1.985-1.522.6 0 1.216.161 1.69.444.03.018.031.061.007.086m2.297 2.17h-2.28c.064-1.24.824-1.972 1.405-2.154.205-.064.554-.121.875-.119z" fill="#f05c2c"/><ellipse cx="18.63" cy="18.5" rx="17.895" ry="17.765" stroke="#229e6b" stroke-width="1.469"/></g></svg>